<svg width="24" height="24" fill="none" xmlns="http://www.w3.org/2000/svg"><g clip-path="url(#clip0_0_197)"><path fill-rule="evenodd" clip-rule="evenodd" d="M0 4.8A4.8 4.8 0 014.8 0h14.4A4.8 4.8 0 0124 4.8v14.4a4.8 4.8 0 01-4.8 4.8H4.8A4.8 4.8 0 010 19.2V4.8zm4.8-2.4a2.4 2.4 0 00-2.4 2.4v14.4a2.4 2.4 0 002.4 2.4H12v-8.4h-1.2a1.2 1.2 0 110-2.4H12V9a4.2 4.2 0 014.2-4.2h.72a1.2 1.2 0 110 2.4h-.72A1.8 1.8 0 0014.4 9v1.8h2.52a1.2 1.2 0 110 2.4H14.4v8.4h4.8a2.4 2.4 0 002.4-2.4V4.8a2.4 2.4 0 00-2.4-2.4H4.8z" fill="#FE0000"/></g><defs><clipPath id="clip0_0_197"><path fill="#fff" d="M0 0h24v24H0z"/></clipPath></defs></svg>