<svg width="24" height="24" fill="none" xmlns="http://www.w3.org/2000/svg"><g clip-path="url(#clip0_0_199)"><path fill-rule="evenodd" clip-rule="evenodd" d="M0 4.8A4.8 4.8 0 014.8 0h14.4A4.8 4.8 0 0124 4.8v14.4a4.8 4.8 0 01-4.8 4.8H4.8A4.8 4.8 0 010 19.2V4.8zm4.8-2.4a2.4 2.4 0 00-2.4 2.4v14.4a2.4 2.4 0 002.4 2.4h14.4a2.4 2.4 0 002.4-2.4V4.8a2.4 2.4 0 00-2.4-2.4H4.8zm7.2 6a3.6 3.6 0 100 7.2 3.6 3.6 0 000-7.2zM6 12a6 6 0 1112 0 6 6 0 01-12 0zm12.6-4.8a1.8 1.8 0 100-3.6 1.8 1.8 0 000 3.6z" fill="#FE0000"/></g><defs><clipPath id="clip0_0_199"><path fill="#fff" d="M0 0h24v24H0z"/></clipPath></defs></svg>