<svg width="250" height="23" fill="none" xmlns="http://www.w3.org/2000/svg"><path d="M0 21.696V.41h4.585v8.106h9.06V.409h4.585v21.287h-4.585v-9.47h-9.06v9.47H0zm24.188 0V.41h14.52v3.603h-9.99v4.694h7.697v3.33h-7.696v6.058H38.87v3.602H24.188zm17.952 0v-.163L48.552.409h7.177l6.44 21.124v.163h-4.693L52.319 3.957h-.655l-5.213 17.74H42.14zm5.321-5.321l.955-3.44h7.15l.956 3.44h-9.06zm18.804 5.321V.41h4.584v17.685h8.897v3.602H66.265zm19.675 0V4.012h-6.305V.409h17.193v3.603h-6.304v17.684H85.94zm15.589 0V.41h4.585v8.106h9.06V.409h4.585v21.287h-4.585v-9.47h-9.06v9.47h-4.585zm32.545 0V.41h7.587c3.785 0 6.532.937 8.242 2.811 1.71 1.856 2.566 4.467 2.566 7.833 0 3.366-.856 5.986-2.566 7.86-1.71 1.855-4.457 2.783-8.242 2.783h-7.587zm4.585-3.548h2.729c1.401 0 2.566-.209 3.494-.627.946-.437 1.655-1.165 2.128-2.184.473-1.037.71-2.465.71-4.284 0-1.82-.237-3.239-.71-4.258-.473-1.037-1.182-1.764-2.128-2.183-.928-.436-2.093-.655-3.494-.655h-2.729v14.191zm18.516 3.548V.41h14.519v3.603h-9.988v4.694h7.696v3.33h-7.696v6.058h10.152v3.602h-14.683zm27.096.41c-1.656 0-3.057-.219-4.203-.655-1.128-.455-2.047-1.047-2.756-1.774a7.543 7.543 0 01-1.556-2.375 8.985 8.985 0 01-.573-2.565h4.258c.036.655.236 1.283.6 1.883.364.6.91 1.092 1.637 1.474.728.382 1.638.573 2.729.573 1.183 0 2.056-.237 2.62-.71.583-.49.874-1.128.874-1.91 0-.746-.255-1.355-.764-1.828-.492-.473-1.147-.846-1.965-1.12l-3.084-1.036a19.528 19.528 0 01-2.839-1.201 6.814 6.814 0 01-2.21-1.91c-.582-.801-.873-1.82-.873-3.057 0-1.274.318-2.347.955-3.22.655-.874 1.546-1.538 2.674-1.993 1.147-.455 2.457-.682 3.93-.682 1.892 0 3.384.318 4.476.955s1.883 1.447 2.374 2.43c.51.963.819 1.973.928 3.028h-4.257a3.432 3.432 0 00-.437-1.446c-.236-.473-.618-.855-1.146-1.146-.528-.291-1.237-.437-2.129-.437-1 0-1.746.21-2.238.628a2.023 2.023 0 00-.709 1.583c0 .691.245 1.246.737 1.664.509.419 1.182.774 2.019 1.065l3.084 1.037c1.001.327 1.947.737 2.838 1.228a6.302 6.302 0 012.184 1.965c.582.8.873 1.856.873 3.166 0 1.983-.71 3.547-2.129 4.694-1.401 1.128-3.375 1.692-5.922 1.692zm13.062-.41V.41h4.585v21.287h-4.585zm18.501.382c-1.947 0-3.612-.454-4.994-1.364-1.365-.928-2.411-2.22-3.139-3.875-.728-1.674-1.091-3.621-1.091-5.84 0-2.257.372-4.204 1.118-5.841.765-1.637 1.874-2.902 3.33-3.793 1.474-.892 3.284-1.338 5.431-1.338 1.856 0 3.411.319 4.667.955 1.255.637 2.237 1.52 2.947 2.648.71 1.11 1.164 2.401 1.365 3.875h-4.367c-.218-1.31-.719-2.31-1.501-3.002-.782-.691-1.838-1.037-3.166-1.037-1.765 0-3.084.664-3.957 1.992-.855 1.31-1.283 3.166-1.283 5.567 0 2.457.446 4.349 1.338 5.677.909 1.328 2.247 1.992 4.011 1.992 1.474 0 2.611-.427 3.412-1.282.8-.874 1.246-2.047 1.337-3.52h-6.004v-3.303h10.207v11.107h-3.302V19.24h-.655c-.364.728-.992 1.383-1.883 1.965-.874.582-2.147.873-3.821.873zm14.844-.382V.41h7.914l6.605 17.685h.655V.409H250v21.287h-7.969l-6.577-17.684h-.628v17.684h-4.148z" fill="#0B0B0B"/></svg>